<svg xmlns="http://www.w3.org/2000/svg" xmlns:xlink="http://www.w3.org/1999/xlink" width="113.463" height="103.234" viewBox="0 0 113.463 103.234">
  <defs>
    <clipPath id="clip-path">
      <rect id="Rectángulo_54" data-name="Rectángulo 54" width="113.463" height="103.235" fill="none"/>
    </clipPath>
  </defs>
  <g id="Grupo_94" data-name="Grupo 94" clip-path="url(#clip-path)">
    <path id="Trazado_76" data-name="Trazado 76" d="M0,96.933c.658-2.5.9-5.063,1.313-7.6C2.7,80.74,4.029,72.139,5.4,63.544c.307-1.925,1.073-2.424,2.99-2.075a8.35,8.35,0,0,1,6.88,8.09c.005,4.577-.141,9.154-.262,13.73-.018.7.107,1.052.872,1.192a10.5,10.5,0,0,1,7.87,6.15q2.429,5.029,4.812,10.08a13.807,13.807,0,0,0,4.017,5.068,21.627,21.627,0,0,1,8.78,17.444c.011.777.179,1.023.91.575a6.948,6.948,0,0,1,1.1-.51,1.856,1.856,0,0,1,2.633.882q2.841,5.813,5.568,11.68c.582,1.255.126,2.149-1.289,2.826q-8.73,4.177-17.473,8.33c-2.5,1.189-4.989,2.386-7.492,3.561-1.648.774-2.506.467-3.294-1.176q-2.583-5.385-5.138-10.783c-.747-1.58-.47-2.442,1.1-3.235a1.14,1.14,0,0,0,.724-1.1c.046-1.069.148-2.135.194-3.2a5.923,5.923,0,0,0-1.587-4.129c-4.1-4.942-8.174-9.911-12.278-14.853A21.643,21.643,0,0,1,.2,100.876a8.264,8.264,0,0,0-.2-.841v-3.1m22.642,36.074a1.459,1.459,0,0,0,.383-.049q6.895-3.273,13.789-6.547a1.081,1.081,0,0,0,.632-1.046,17.727,17.727,0,0,0-6.866-16.286,20.122,20.122,0,0,1-5.8-7.418c-1.533-3.352-3.109-6.687-4.8-9.961a6.678,6.678,0,0,0-6.155-3.641c-.956-.031-1.021.236-.624,1.054,2.253,4.644,4.458,9.31,6.671,13.973a5.57,5.57,0,0,1,.5,1.34,1.728,1.728,0,0,1-.971,1.936,1.793,1.793,0,0,1-2.071-.221,3.372,3.372,0,0,1-.837-1.289Q12.616,96.713,8.74,88.576c-.963-2.023-.639-2.869,1.48-3.6a1.224,1.224,0,0,0,.983-1.333c.063-3.8.191-7.6.279-11.4a21.726,21.726,0,0,0-.046-2.986,4.386,4.386,0,0,0-2.507-3.571C7.563,74.3,6.207,82.784,4.878,91.273a44.571,44.571,0,0,0-1.03,7.217,17.375,17.375,0,0,0,4.14,11.188c4.1,4.944,8.18,9.907,12.283,14.849a9.882,9.882,0,0,1,2.458,6.808c-.017.548-.056,1.1-.087,1.67m24.612,2.679a2.832,2.832,0,0,0-.109-.327c-1.172-2.461-2.357-4.917-3.513-7.386-.236-.5-.513-.369-.869-.2q-10.574,5.048-21.157,10.08c-.489.232-.673.428-.4.99,1.153,2.348,2.266,4.715,3.377,7.084.2.43.374.618.895.369q10.617-5.086,21.252-10.136c.217-.1.509-.148.522-.474" transform="translate(0 -47.738)"/>
    <path id="Trazado_77" data-name="Trazado 77" d="M171.651,0q6.774,2.219,13.549,4.437c2.734.892,5.474,1.765,8.209,2.654,1.467.477,1.853.961,1.854,2.487q.015,14.57,0,29.139c0,1.541-.382,2.046-1.821,2.511q-10.576,3.421-21.155,6.836a3.353,3.353,0,0,1-2.161,0q-10.573-3.43-21.155-6.836c-1.437-.465-1.818-.971-1.82-2.512q-.013-14.57,0-29.139c0-1.515.4-2.021,1.854-2.491q10.577-3.42,21.156-6.833c.207-.067.4-.169.6-.254Zm-2.362,30.58c0-3.989-.016-7.977.015-11.966.006-.724-.148-1.1-.913-1.345-5.486-1.727-10.957-3.5-16.425-5.286-.726-.237-1.007-.213-1,.69q.048,12.132.005,24.264a1.076,1.076,0,0,0,.892,1.244q8.175,2.577,16.315,5.266c1.05.349,1.139,0,1.13-.9-.037-3.988-.016-7.977-.016-11.966m22.146-5.763c0-4.025-.027-8.051.02-12.076.011-.926-.232-1.016-1.047-.749q-8.143,2.675-16.314,5.266c-.7.222-.99.5-.987,1.287q.05,12.076,0,24.152c0,.922.227,1.032,1.065.756q8.143-2.676,16.318-5.253a1.133,1.133,0,0,0,.96-1.307c-.039-4.025-.018-8.051-.018-12.076m-4.71-15.778c-.092-.261-.361-.21-.544-.269-4.767-1.546-9.541-3.069-14.3-4.628a2.254,2.254,0,0,0-1.5.055c-4.663,1.508-9.331,3-13.992,4.514-.236.077-.574.062-.735.422.172.074.3.139.431.182,4.84,1.56,9.682,3.111,14.516,4.69a1.923,1.923,0,0,0,1.278-.022c4.731-1.536,9.468-3.055,14.2-4.591.224-.073.541-.023.645-.352" transform="translate(-114.468)" fill="#00678b"/>
    <path id="Trazado_78" data-name="Trazado 78" d="M314.279,76.1c0-2.252-.039-4.5.008-6.755a8.551,8.551,0,0,1,7.569-8.207,1.932,1.932,0,0,1,2.217,1.813c.527,3.053,1,6.114,1.488,9.174,1.29,8.161,2.633,16.314,3.834,24.488.6,4.079-.559,7.888-2.348,11.527-1.272,2.587-3.274,4.632-5.066,6.83-2.893,3.548-5.707,7.172-8.783,10.556a8.994,8.994,0,0,0-2.431,7.907c.133.873.225,1.556,1.2,1.975a1.788,1.788,0,0,1,.888,2.61q-2.712,5.814-5.52,11.583c-.626,1.283-1.592,1.488-3.092.777q-7.8-3.7-15.584-7.413-4.6-2.187-9.19-4.373c-1.775-.849-2.084-1.69-1.252-3.445q2.512-5.3,5.044-10.584c.841-1.758,1.683-2.052,3.449-1.233,1.461.678,1.435.677,1.506-.97a21.508,21.508,0,0,1,8.53-16.563,15.32,15.32,0,0,0,4.465-5.683c1.435-3.114,2.963-6.185,4.411-9.293a10.8,10.8,0,0,1,8.191-6.563c.593-.107.752-.372.743-.959-.035-2.4-.014-4.8-.014-7.2h-.265m6.357-10.611a4.812,4.812,0,0,0-2.58,4.738c.1,4.318.241,8.636.294,12.955a1.529,1.529,0,0,0,1.266,1.7c1.756.56,2.116,1.552,1.325,3.254-.73,1.571-1.485,3.131-2.23,4.7q-2.83,5.941-5.662,11.88c-.714,1.493-1.738,2.024-2.841,1.493s-1.3-1.626-.576-3.167c.047-.1.1-.2.147-.3,2.2-4.627,4.391-9.26,6.619-13.874.37-.766.28-1.019-.6-1a7.012,7.012,0,0,0-6.573,4.264c-1.572,3.253-3.137,6.509-4.656,9.786a18.553,18.553,0,0,1-5.371,6.789,17.859,17.859,0,0,0-7.091,16.3,1.394,1.394,0,0,0,.9,1.332c4.372,2.052,8.724,4.145,13.089,6.212.237.112.47.374.807.187a6.354,6.354,0,0,0,0-.661,10.007,10.007,0,0,1,2.436-7.791q3.526-4.2,6.984-8.452a100.357,100.357,0,0,0,6.523-8.1A15.724,15.724,0,0,0,325.564,96.6c-.939-6.273-1.972-12.532-2.967-18.8-.646-4.068-1.295-8.135-1.961-12.317M308.56,138.168c-.085-.327-.39-.4-.643-.521q-10.526-5.022-21.048-10.051c-.595-.285-.794-.111-1.043.429-1.063,2.309-2.149,4.608-3.286,6.881-.322.643-.148.863.436,1.139q10.493,4.962,20.958,9.983c.656.315.857.132,1.121-.437,1.052-2.274,2.147-4.527,3.224-6.789.095-.2.178-.4.281-.634" transform="translate(-216.092 -47.546)"/>
  </g>
</svg>
