<svg xmlns="http://www.w3.org/2000/svg" xmlns:xlink="http://www.w3.org/1999/xlink" width="83.619" height="107.088" viewBox="0 0 83.619 107.088">
  <defs>
    <clipPath id="clip-path">
      <rect id="Rectángulo_55" data-name="Rectángulo 55" width="83.619" height="107.088" fill="#00678b"/>
    </clipPath>
  </defs>
  <g id="Grupo_97" data-name="Grupo 97" transform="translate(-9.308 -11.92)">
    <g id="Grupo_96" data-name="Grupo 96" transform="translate(9.308 11.92)" clip-path="url(#clip-path)">
      <path id="Trazado_79" data-name="Trazado 79" d="M67.444,252.769c1.873-1,3.729-2.033,5.622-2.994a8.063,8.063,0,0,1,10.188,2.649,1.821,1.821,0,0,1-.523,2.65c-2.305,1.794-4.639,3.551-6.969,5.313-6.214,4.7-12.4,9.437-18.664,14.066-3.126,2.31-6.809,3.039-10.63,3.168-2.717.091-5.307-.666-7.932-1.18-4.236-.83-8.5-1.561-12.681-2.616a8.48,8.48,0,0,0-7.656,1.49c-.667.5-1.194.879-1.108,1.877a1.685,1.685,0,0,1-1.776,1.9q-6.04.327-12.085.554c-1.346.049-1.945-.663-2.02-2.226q-.39-8.126-.757-16.254-.223-4.793-.445-9.586c-.083-1.854.48-2.484,2.309-2.572q5.521-.264,11.043-.506c1.836-.081,2.455.488,2.557,2.321.085,1.517.075,1.495,1.476.822a20.28,20.28,0,0,1,17.564-.263,14.444,14.444,0,0,0,6.71,1.189c3.227-.19,6.46-.283,9.688-.46a10.183,10.183,0,0,1,9.1,3.9c.353.446.644.46,1.128.193,1.98-1.095,3.985-2.144,5.981-3.21l-.118-.22m11.649.574a4.537,4.537,0,0,0-5.087-.041c-3.548,2-7.076,4.036-10.644,6a1.442,1.442,0,0,0-.852,1.809c.315,1.709-.351,2.449-2.118,2.548-1.631.091-3.264.156-4.9.231q-6.2.285-12.4.568c-1.559.07-2.456-.547-2.5-1.7s.775-1.8,2.377-1.886c.1-.005.208,0,.313-.01,4.826-.223,9.652-.461,14.479-.658.8-.033.972-.22.562-.944a6.612,6.612,0,0,0-6.466-3.573c-3.4.138-6.807.282-10.208.475a17.493,17.493,0,0,1-8.032-1.451,16.84,16.84,0,0,0-16.709,1.344,1.315,1.315,0,0,0-.707,1.342c.235,4.548.428,9.1.648,13.646.012.247-.1.557.2.754a5.943,5.943,0,0,0,.548-.3,9.435,9.435,0,0,1,7.562-1.435q5.057,1.068,10.131,2.054a94.655,94.655,0,0,0,9.636,1.826A14.826,14.826,0,0,0,55.4,271.262c4.8-3.568,9.546-7.207,14.314-10.817,3.1-2.344,6.19-4.69,9.373-7.1M13.279,275.585c.234-.216.16-.5.148-.766q-.5-10.985-.991-21.971c-.027-.621-.26-.71-.82-.677-2.392.141-4.787.259-7.183.324-.678.018-.783.26-.754.868Q4.214,264.3,4.687,275.23c.029.685.271.771.861.737,2.358-.135,4.719-.225,7.079-.334.207-.009.414-.03.652-.048" transform="translate(0 -172.559)"/>
      <path id="Trazado_80" data-name="Trazado 80" d="M23.335,74.783c11.918.03,21.083,10.37,19.618,22.738-1.2,10.153-8.525,17.109-18.687,17.926-10.757.865-19.71-7.048-21.282-17.425A19.29,19.29,0,0,1,8,81.413c.169-.185.344-.367.527-.538a1.412,1.412,0,0,1,2.086-.114,1.391,1.391,0,0,1-.086,2.09,21.825,21.825,0,0,0-2.193,2.7c-7.148,10.706.074,25.872,12.888,27.058a17.542,17.542,0,0,0,4.766-34.728,16.628,16.628,0,0,0-9.153.842c-.088.034-.171.078-.26.109a1.473,1.473,0,0,1-2.051-.713c-.312-.8.068-1.527,1.021-1.913a20.66,20.66,0,0,1,7.791-1.423" transform="translate(-1.891 -51.931)" fill="#00678b"/>
      <path id="Trazado_81" data-name="Trazado 81" d="M170.145,138.947a6.873,6.873,0,0,1-2.354-.482,5.488,5.488,0,0,0-3.863,0,6.6,6.6,0,0,1-3.513.4,5.069,5.069,0,0,1-3.27-2.369,6.6,6.6,0,0,0-3.7-2.709c-2.821-.895-3.977-2.478-3.949-5.445a6.811,6.811,0,0,0-1.435-4.35c-1.765-2.362-1.76-4.458.02-6.825a6.8,6.8,0,0,0,1.415-4.357c-.022-2.918,1.13-4.515,3.9-5.387a6.937,6.937,0,0,0,3.828-2.838c1.709-2.507,3.3-3.03,6.147-2.026a7.118,7.118,0,0,0,4.857.053c2.753-.924,4.629-.309,6.328,2.064a7.08,7.08,0,0,0,3.786,2.751c2.746.872,3.957,2.512,3.908,5.393a6.876,6.876,0,0,0,1.451,4.433c1.714,2.313,1.723,4.355.011,6.666a7.049,7.049,0,0,0-1.464,4.524,4.882,4.882,0,0,1-3.8,5.284,7.206,7.206,0,0,0-3.995,2.921,4.764,4.764,0,0,1-4.308,2.3m.1-2.818c1.156.029,1.743-.786,2.294-1.587a8.327,8.327,0,0,1,4.711-3.382c1.826-.531,2.238-1.082,2.186-2.989a8.685,8.685,0,0,1,1.847-5.69c1.175-1.547,1.169-2.222-.017-3.792a8.616,8.616,0,0,1-1.829-5.6c.049-1.983-.325-2.476-2.215-3.063a8.732,8.732,0,0,1-4.773-3.461c-1.15-1.661-1.7-1.843-3.58-1.2a8.933,8.933,0,0,1-5.989.008c-1.9-.652-2.446-.469-3.588,1.172a8.736,8.736,0,0,1-4.765,3.475c-1.933.595-2.235,1.025-2.222,3.044a8.755,8.755,0,0,1-1.78,5.528c-1.292,1.711-1.288,2.3,0,4.023a8.609,8.609,0,0,1,1.772,5.341c0,2.26.244,2.611,2.41,3.3a8.423,8.423,0,0,1,4.469,3.263c1.292,1.82,1.744,1.96,3.892,1.253a8.365,8.365,0,0,1,5.625.029,4.638,4.638,0,0,0,1.547.336" transform="translate(-101.9 -70.888)" fill="#00678b"/>
      <path id="Trazado_82" data-name="Trazado 82" d="M122.123,31.1A15.61,15.61,0,0,1,106.51,15.661a15.609,15.609,0,1,1,31.219-.014A15.612,15.612,0,0,1,122.123,31.1m-.042-2.883A12.591,12.591,0,0,0,134.9,15.38a12.785,12.785,0,0,0-25.568-.067,12.573,12.573,0,0,0,12.746,12.9" transform="translate(-73.963 0.001)" fill="#00678b"/>
      <path id="Trazado_83" data-name="Trazado 83" d="M59.9,121.751a1.957,1.957,0,0,0-1.437-1.784c-.8-.35-1.649-.6-2.44-.975-1.525-.717-2.692-1.757-2.756-3.594a4.189,4.189,0,0,1,2.541-4.142.8.8,0,0,0,.494-.79c.057-.953.562-1.455,1.368-1.463a1.352,1.352,0,0,1,1.417,1.429.867.867,0,0,0,.66.865,4.169,4.169,0,0,1,1.391.947,1.455,1.455,0,0,1,.182,2.027,1.417,1.417,0,0,1-2.022.1,2.805,2.805,0,0,0-1.308-.7,1.635,1.635,0,0,0-1.85,1.1,1.334,1.334,0,0,0,.959,1.692c.783.316,1.609.539,2.368.9,1.818.869,3.244,2.1,3.248,4.316a4.817,4.817,0,0,1-3.154,4.776c-.423.178-.432.436-.456.793-.067,1.022-.549,1.561-1.368,1.588-.864.028-1.368-.494-1.436-1.584-.026-.414-.148-.615-.56-.712a5.264,5.264,0,0,1-2.088-1.036,1.4,1.4,0,1,1,1.6-2.292,3.95,3.95,0,0,0,2.655.745,2.113,2.113,0,0,0,1.989-2.2" transform="translate(-36.77 -75.694)" fill="#00678b"/>
      <path id="Trazado_84" data-name="Trazado 84" d="M29.264,121.307a1.356,1.356,0,0,1,1.259,1.925,10.445,10.445,0,0,0,.178,8.824,1.371,1.371,0,0,1-.605,1.862,1.425,1.425,0,0,1-1.922-.667,12.725,12.725,0,0,1-.194-11.163,1.276,1.276,0,0,1,1.284-.781" transform="translate(-18.6 -84.238)" fill="#00678b"/>
      <path id="Trazado_85" data-name="Trazado 85" d="M102.285,127.221a12.476,12.476,0,0,1-1.068,5.087,1.5,1.5,0,0,1-1.933,1.006c-.822-.332-1.076-1.112-.656-2.131a10.251,10.251,0,0,0,0-8.124c-.426-1.03-.184-1.777.651-2.131.8-.337,1.518.048,1.963,1.066a12.754,12.754,0,0,1,1.041,5.226" transform="translate(-68.347 -83.893)" fill="#00678b"/>
      <path id="Trazado_86" data-name="Trazado 86" d="M202.413,139.729a2.1,2.1,0,0,1-.457,1.191q-3.841,5.694-7.684,11.387c-.647.956-1.491,1.2-2.219.68-.7-.495-.756-1.317-.133-2.244q3.861-5.738,7.73-11.471a1.5,1.5,0,0,1,1.83-.761,1.373,1.373,0,0,1,.933,1.217" transform="translate(-132.974 -96.125)" fill="#00678b"/>
      <path id="Trazado_87" data-name="Trazado 87" d="M219.52,180.571a1.324,1.324,0,0,1-1.386-1.338,1.359,1.359,0,0,1,1.381-1.453,1.338,1.338,0,0,1,1.333,1.4,1.31,1.31,0,0,1-1.328,1.389" transform="translate(-151.476 -123.454)" fill="#00678b"/>
      <path id="Trazado_88" data-name="Trazado 88" d="M194.27,139.8a1.293,1.293,0,0,1-1.3,1.406,1.388,1.388,0,0,1-.035-2.775,1.287,1.287,0,0,1,1.335,1.369" transform="translate(-133.035 -96.131)" fill="#00678b"/>
      <path id="Trazado_89" data-name="Trazado 89" d="M127.2,33.915c.174-1.045.344-2.224.578-3.39a1.091,1.091,0,0,0-.386-1.15c-.741-.676-1.448-1.39-2.159-2.1a2.7,2.7,0,0,1,1.486-4.641,10.7,10.7,0,0,1,1.949-.283,2.406,2.406,0,0,0,2.582-1.922,12.1,12.1,0,0,1,.862-1.773,2.7,2.7,0,0,1,4.8.012c.494.943.96,1.9,1.411,2.866a.946.946,0,0,0,.83.624c1.088.13,2.17.318,3.253.492a2.69,2.69,0,0,1,1.5,4.5c-.738.769-1.5,1.512-2.283,2.241a1.06,1.06,0,0,0-.384,1.142c.233,1.038.377,2.1.534,3.15a2.521,2.521,0,0,1-1.085,2.54,2.451,2.451,0,0,1-2.66.288c-.985-.48-1.956-.992-2.912-1.528a1.092,1.092,0,0,0-1.211.009,31.192,31.192,0,0,1-2.916,1.518,2.722,2.722,0,0,1-3.786-2.594m14.354-8.524a25.767,25.767,0,0,0-2.676-.412,3.309,3.309,0,0,1-3.135-2.274c-.332-.812-.775-1.578-1.238-2.505-.552,1.11-1.023,2-1.438,2.906a2.966,2.966,0,0,1-2.534,1.825c-1,.119-2,.3-3.131.466.868.87,1.611,1.626,2.367,2.369a2.812,2.812,0,0,1,.873,2.728c-.208,1.036-.346,2.086-.544,3.309.985-.512,1.836-.9,2.63-1.38a3.228,3.228,0,0,1,3.547-.021,13.542,13.542,0,0,0,2.636,1.294c-.177-1.069-.288-2.034-.5-2.975a3.051,3.051,0,0,1,1.008-3.13,15.6,15.6,0,0,0,2.139-2.2" transform="translate(-86.359 -11.948)" fill="#00678b"/>
    </g>
  </g>
</svg>
