<svg xmlns="http://www.w3.org/2000/svg" width="87.691" height="77.768" viewBox="0 0 87.691 77.768">
  <g id="Grupo_164" data-name="Grupo 164" transform="translate(-211.741 -89.187)">
    <path id="Trazado_90" data-name="Trazado 90" d="M30.066,178.513c.554.824,1.082,1.554,1.549,2.322.3.485.5.428.778.011.452-.67.938-1.318,1.384-1.993.255-.385.467-.366.719-.016.5.7,1.015,1.383,1.507,2.085.253.361.46.369.72.009.474-.655,1-1.275,1.442-1.949.381-.58.613-.454.926.046.376.6.842,1.149,1.2,1.76.373.633.586.447.887-.049.45-.742.949-1.453,1.45-2.211a1.061,1.061,0,0,1,.226.929c.007,2.452.022,4.9-.013,7.356-.01.714.245.923.94.921q12.247-.028,24.494-.015c.911,0,1.145-.218,1.148-1.122.01-2.693,0-5.386,0-8.08,0-1.962.005-3.924.005-5.885q0-15.043,0-30.085a2.232,2.232,0,0,1,0-.367c.055-.327-.178-.912.358-.867.476.04.161.577.142.864a4.28,4.28,0,0,0,1.082,3.337,7.152,7.152,0,0,1,1.773,5.425c-.1,8.065-.042,16.133-.042,24.2q0,5.772,0,11.544a4.135,4.135,0,0,1-4.406,4.43c-3.579.015-7.158.007-10.738.007l-53.035,0c-2.435,0-4.028-1.175-4.483-3.314A4.584,4.584,0,0,1,0,186.853Q0,154.672,0,122.49A4.137,4.137,0,0,1,4.4,118.118c4.683-.007,9.366,0,14.049-.011.438,0,.893.143,1.329-.217.174-.144.532.22.9.22,6.986-.017,13.973,0,20.959.008,1.225,0,1.226,0,1.227,1.2q0,5.3,0,10.592c0,.231.12.576-.14.666-.285.1-.352-.274-.482-.457-.41-.58-.8-1.174-1.184-1.772-.223-.348-.372-.475-.653-.017-.422.688-.934,1.319-1.378,1.995-.293.446-.518.419-.812.005-.455-.639-.975-1.233-1.4-1.89-.34-.527-.565-.477-.886,0-.439.646-.915,1.268-1.375,1.9-.293.4-.521.528-.846-.022-.41-.694-.927-1.324-1.383-1.991-.225-.33-.384-.383-.62,0-.383.627-.805,1.23-1.221,1.836-.119.173-.2.482-.447.421-.266-.067-.148-.376-.148-.577-.008-2.476,0-4.953-.006-7.429,0-1.05,0-1.053-1.061-1.054-1.667,0-3.335-.034-5,.006-3.16.076-6.319-.031-9.479-.011-3.187.02-6.375,0-9.562.005-1.362,0-1.463.1-1.463,1.464q0,31.445,0,62.89c0,1.827.023,1.846,1.844,1.846H28.763c1.109,0,1.111,0,1.111-1.085q0-3.715,0-7.429a.95.95,0,0,1,.188-.695" transform="translate(211.741 -24.168)"/>
    <path id="Trazado_91" data-name="Trazado 91" d="M302.721,13.859a13.872,13.872,0,0,1,4.386-10.142,13.771,13.771,0,0,1,19.587.773,13.224,13.224,0,0,1,3.562,9.966,13.372,13.372,0,0,1-3.885,8.874c-.318.329-.441.549-.079.942a10.679,10.679,0,0,1,.976,1.361c.175.264.344.3.6.108.317-.247.648-.475.975-.71a1.166,1.166,0,0,1,1.822.238q2.419,3.261,4.809,6.544,1.872,2.558,3.732,5.125a1.267,1.267,0,0,1-.331,2.083c-1.7,1.23-3.384,2.473-5.075,3.71a1.236,1.236,0,0,1-2.045-.316q-3.389-4.631-6.771-9.267-.865-1.183-1.738-2.36a1.207,1.207,0,0,1,.271-1.865c.336-.251.667-.509,1.012-.747.21-.144.289-.276.114-.508-.41-.544-.808-1.1-1.207-1.65a.314.314,0,0,0-.479-.106,13.825,13.825,0,0,1-7.074,1.572,13.3,13.3,0,0,1-7.066-2.351,13.7,13.7,0,0,1-6.092-11.274m13.8,10.839a10.944,10.944,0,1,0-10.951-11.052A10.9,10.9,0,0,0,316.523,24.7" transform="translate(-40.172 89.187)" fill="#00678b"/>
    <path id="Trazado_92" data-name="Trazado 92" d="M79.8,487.7c-.99,0-1.832.031-2.671-.01-.631-.031-.816.227-.806.828.028,1.674-.013,3.348.02,5.022.013.675-.211.925-.9.9q-2.049-.065-4.1,0c-.672.02-.924-.189-.908-.885.04-1.665-.009-3.331.023-5,.012-.639-.188-.916-.851-.871-.619.042-1.243.018-1.864.006-.184,0-.447.1-.527-.141-.074-.218.163-.341.306-.464q1.751-1.507,3.512-3c.643-.547,1.293-1.087,1.938-1.632.265-.224.515-.376.849-.087q2.868,2.484,5.747,4.956a2.113,2.113,0,0,1,.235.374" transform="translate(149.973 -333.786)"/>
  </g>
</svg>
