<?xml version="1.0" encoding="utf-8"?>
<!-- Generator: Adobe Illustrator 27.8.1, SVG Export Plug-In . SVG Version: 6.00 Build 0)  -->
<svg version="1.1" id="Capa_1" xmlns="http://www.w3.org/2000/svg" xmlns:xlink="http://www.w3.org/1999/xlink" x="0px" y="0px"
	 viewBox="0 0 32 32" style="enable-background:new 0 0 32 32;" xml:space="preserve">
<style type="text/css">
	.st0{fill:#0C2B3D;}
</style>
<g>
	<path id="Trazado_116" class="st0" d="M11.52,12.83L11.52,12.83L11.52,12.83L11.52,12.83"/>
	<path id="Trazado_117" class="st0" d="M11.06,13.49L11.06,13.49L11.06,13.49L11.06,13.49"/>
	<path id="Trazado_118" class="st0" d="M26.48,24.61c0.03,0.08,0.06,0.16,0.1,0.24l0.01,0c-0.06-0.14-0.11-0.27-0.15-0.36
		C26.45,24.53,26.46,24.57,26.48,24.61"/>
	<path id="Trazado_119" class="st0" d="M11.72,12.01c2.18-0.31,12.34-1.26,17.24,2.48c0.22,0.17,1.27,0.89,1.4,1.41
		c0,0,0-0.05,0-0.13c-0.02-0.37-0.05-0.74-0.12-1.11c-0.01-0.04-0.01-0.07-0.02-0.1c-0.21-1.4-0.63-2.76-1.26-4.03
		c-0.29-0.58-0.78-1.05-1.37-1.31C21.73,6.67,14.96,8.58,11.72,12.01"/>
	<path id="Trazado_120" class="st0" d="M26.42,24.46c0,0.01,0.01,0.02,0.01,0.03L26.42,24.46L26.42,24.46"/>
	<path id="Trazado_121" class="st0" d="M11.07,13.09L11.07,13.09c0.03,0.05,1.79,3.87,0.78,7c-0.12,0.36-0.27,0.71-0.44,1.05
		c0,0.01-0.01,0.02-0.01,0.03c-0.74,1.44-2.02,2.76-3.67,3.32c-0.79,0.27-1.64,0.35-2.47,0.24c-0.72-0.13-1.19-0.27-1.19-0.27
		c2.05,2.98,5.15,5.08,8.67,5.88c0.06,0.01,0.12,0.02,0.19,0.02c0.39,0,0.69-0.32,0.98-0.64c0.48-0.52,1.03-2.01,1.29-3.95
		c0-0.03,0.01-0.06,0.01-0.09C15.68,21.97,15.12,16.64,11.07,13.09"/>
	<path id="Trazado_122" class="st0" d="M30.24,18.43c-0.02-0.25-0.14-0.47-0.33-0.63c-7.39-6.24-16.54-5.52-18.26-5.34l0,0l-0.01,0
		c7.58,0.98,13.56,8.91,14.77,11.95l0.02,0.05c0,0.01,0.01,0.02,0.01,0.03c0.04,0.09,0.09,0.22,0.15,0.36
		c0.11,0.26,0.2,0.52,0.26,0.79c-0.01,0.09-0.02,0.19-0.04,0.28c0.38-0.38,0.72-0.81,1.01-1.26l0.01-0.01
		c1.27-1.78,2.09-3.84,2.41-6c0.01-0.06,0.01-0.11,0.01-0.17C30.24,18.46,30.24,18.45,30.24,18.43"/>
	<path id="Trazado_123" class="st0" d="M24.14,27.09c-0.04-0.15-0.12-0.42-0.18-0.64h0c-0.02-0.06-0.04-0.12-0.05-0.17
		c-0.01-0.04-0.02-0.07-0.03-0.1l0,0c0-0.02-0.01-0.03-0.01-0.05c-3.38-10.99-11.17-13.04-12.34-13.3
		c6.25,5.03,5.94,10.96,5.59,13.84c0,0.03-0.01,0.06-0.01,0.09c-0.07,0.56-0.14,1-0.16,1.28L16.7,29.2
		c-0.05,0.24-0.12,0.47-0.19,0.7c-0.29,0.81-0.56,0.8-0.56,0.8c0.12,0.01,0.36,0.01,0.36,0.01c2.55-0.05,5.03-0.76,7.22-2.07
		C24.05,28.32,24.3,27.69,24.14,27.09"/>
	<path id="Trazado_124" class="st0" d="M6.26,16.28c-2.06,0.11-4.02-0.94-4.23-2.95c-0.5,2.05-0.53,4.18-0.08,6.24
		c0.5,2.29,2.75,3.74,5.04,3.26c0,0,0.01,0,0.01,0c0.38-0.09,0.76-0.21,1.12-0.36c1.39-0.6,2.18-1.77,2.6-3.08
		c0.76-2.37,0.32-5.21,0.09-6.06c0-0.02-0.01-0.04-0.01-0.06c0,0-0.33,0.58-0.43,0.73C9.44,15.36,7.92,16.21,6.26,16.28"/>
	<path id="Trazado_125" class="st0" d="M26.56,7.03c0.02-0.48-0.35-2.78-3.17-2.67c0,0-2.47-4.2-10.03-2.77c0,0,1.09,0.3,1.65,0.88
		c0,0-6.51-1.34-11.79,4.49c0,0,1.33-0.4,2.19,0.15c-4.32,4.3-1.35,7.2,0.04,7.79c0.33,0.14,0.68,0.21,1.04,0.22
		c1.76,0.06,3.69-1.27,4.35-2.58c0.3-0.59,0.68-1.14,1.12-1.63c3-3.37,8.9-4.74,11.77-4.54c0.44,0.03,0.87,0.11,1.29,0.23
		c0.52,0.14,1.03,0.33,1.52,0.56c-0.01,0,0-0.02,0-0.03C26.56,7.1,26.56,7.07,26.56,7.03 M20.87,3.83c0.59,0.33,1.69,0.42,1.69,0.42
		c-1.55,0.59-2.49,0.17-2.82-0.41C19.39,3.24,17.98,3,17.98,3C18.99,3.09,19.97,3.38,20.87,3.83"/>
</g>
</svg>
